<?xml version="1.0" encoding="utf-8"?>
<!-- Generator: Adobe Illustrator 27.5.0, SVG Export Plug-In . SVG Version: 6.00 Build 0)  -->
<svg version="1.1" xmlns="http://www.w3.org/2000/svg" xmlns:xlink="http://www.w3.org/1999/xlink" x="0px" y="0px"
	 viewBox="0 0 1100 240" style="enable-background:new 0 0 1100 240;" fill="white"  xml:space="preserve">
<style type="text/css">
	<!-- .st0{fill:#E21A34;} -->
	.st0{fill:#ffffff;}
</style>
<g id="Ebene_1">
</g>
<g id="_x3C_Ebene_x3E_">
	<g>
		<path class="st0" d="M128.6,55.2c11.6,0,21-9.4,21-21c0-11.6-9.4-21-21-21H37.8c-12.7,0-23,10.3-23,23v156.5c0,12.7,10.3,23,23,23
			s23-10.3,23-23v-60.2h53.4c10.5,0,19.1-8.5,19.1-19.1c0-10.5-8.5-19.1-19.1-19.1H60.7v-39H128.6z"/>
		<path class="st0" d="M737.6,13.1H612.3c-11.6,0-21,9.4-21,21c0,11.6,9.4,21,21,21h39.7v137.4c0,12.7,10.3,23,23,23s23-10.3,23-23
			V55.2h39.7c11.6,0,21-9.4,21-21C758.6,22.6,749.2,13.1,737.6,13.1z"/>
		<path class="st0" d="M367.2,11.4c-12.7,0-23,10.3-23,23v158.3c0,12.7,10.3,23,23,23s23-10.3,23-23V34.3
			C390.1,21.7,379.9,11.4,367.2,11.4z"/>
		<path class="st0" d="M803.6,11.4c-12.7,0-23,10.3-23,23v158.3c0,12.7,10.3,23,23,23s23-10.3,23-23V34.3
			C826.6,21.7,816.3,11.4,803.6,11.4z"/>
		<path class="st0" d="M319,182.3L249.4,26.5l0,0c-3.9-8.3-12.4-14.1-22.2-14.1c-9.8,0-18.3,5.8-22.2,14.1l-0.1,0l-69.6,155.8
			c-5.1,11.7,0.2,25.3,11.9,30.4c11.7,5.1,25.3-0.2,30.4-11.9l9.3-21.7h80.5l9.3,21.7c5.1,11.7,18.7,17,30.4,11.9
			C318.8,207.6,324.1,194,319,182.3z M203.5,139.5l23.7-57.7l23.7,57.7H203.5z"/>
		<g>
			<path class="st0" d="M1075.6,175l-18.5-17.7c5.9-12.9,9.1-27.3,9.1-42.4c0-57.1-46.7-103.5-104.2-103.5
				c-57.6,0-104.2,46.3-104.2,103.5S904.4,218.4,962,218.4c19.5,0,37.7-5.3,53.3-14.6l16.1,15.4c6.1,6.1,14.1,9.2,22.1,9.2
				c8,0,16-3.1,22.1-9.2C1087.8,207,1087.8,187.2,1075.6,175z M962,172.6c-32.1,0-58.1-25.8-58.1-57.7s26-57.7,58.1-57.7
				c32.1,0,58.1,25.8,58.1,57.7c0,4-0.4,8-1.2,11.8c-2.4-0.6-4.9-0.9-7.3-0.9c-8,0-16,3.1-22.1,9.2c-9.2,9.2-11.4,22.6-6.9,33.9
				C976.2,171.2,969.3,172.6,962,172.6z M1069.8,213.4c-4.3,4.3-10.1,6.7-16.3,6.7c-6.1,0-11.9-2.4-16.4-6.9l-14.7-14l-27.1-25.9
				l-0.2-0.2c-2.2-2.3-3.9-4.9-5-7.8c-1-2.6-1.6-5.4-1.6-8.3c0-6.1,2.4-11.9,6.7-16.3c4.3-4.3,10.1-6.7,16.3-6.7
				c1.7,0,3.4,0.2,5,0.6c4.2,0.9,8.2,3.1,11.4,6.3l25.2,24.1l16.6,15.8c4.3,4.3,6.7,10.1,6.7,16.3
				C1076.5,203.3,1074.1,209,1069.8,213.4z"/>
			<circle class="st0" cx="1053.5" cy="197.1" r="14.5"/>
		</g>
		<path class="st0" d="M576.4,177.1c-1.3-1.3-2.8-2.4-4.3-3.3L536,146c26.5-8.2,45.8-33,45.8-62.2c0-0.2,0-0.5,0-0.7
			c0-0.2,0-0.4,0-0.6c0-33.7-20.4-68.9-84.4-68.9h-40.1v0c-12.3,0-22.4,9.7-22.9,21.9h-0.1v157.6c0,12.7,10.3,23,23,23
			c12.7,0,23-10.3,23-23v-36.5l63.8,52.6c8.9,8.9,23.3,8.9,32.2,0C585.3,200.4,585.3,186,576.4,177.1z M507.3,117.2h-27V57.1h27
			c16.6,0,30,13.4,30,30S523.9,117.2,507.3,117.2z"/>
	</g>
</g>
</svg>
